<svg width="18" height="25" viewBox="0 0 18 25" fill="none" xmlns="http://www.w3.org/2000/svg">
<path d="M0.5625 8.9375C0.5625 13.1054 3.74442 17.6274 6.55209 21.5351C7.2195 22.4634 7.85878 23.3526 8.41495 24.1869C8.54541 24.3826 8.76516 24.5 8.99995 24.5C9.23475 24.5 9.4545 24.3826 9.58495 24.1869C10.1411 23.3526 10.7804 22.4634 11.4478 21.5351C14.2556 17.6274 17.4375 13.1054 17.4375 8.9375C17.4375 4.28478 13.6527 0.5 9 0.5C4.34728 0.5 0.5625 4.28478 0.5625 8.9375ZM13.2188 8.9375C13.2188 11.2639 11.3264 13.1562 9 13.1562C6.67364 13.1562 4.78125 11.2639 4.78125 8.9375C4.78125 6.61114 6.67364 4.71875 9 4.71875C11.3264 4.71875 13.2188 6.61114 13.2188 8.9375Z" fill="white"/>
</svg>
