<svg width="40" height="40" viewBox="0 0 40 40" fill="none" xmlns="http://www.w3.org/2000/svg">
<path d="M36.0001 20.48C36.2401 11.32 28.8801 3.87997 19.7601 3.99997C11.0001 4.11997 3.92006 11.36 4.00006 20.12C4.04006 26.4 7.72006 31.8 13.0001 34.4C13.3201 34.56 13.6801 34.32 13.6401 33.96C13.6001 32.92 13.6401 31.84 13.8401 30.96C14.0401 30.08 14.8401 26.72 15.3601 24.52C15.6001 23.44 15.6401 22.32 15.4401 21.24C15.3601 20.88 15.3201 20.48 15.3201 20C15.3201 17.64 16.6801 15.88 18.4001 15.88C19.8401 15.88 20.5601 16.96 20.5601 18.28C20.5601 19.72 19.6401 21.92 19.1601 23.96C18.7601 25.64 20.0001 27.04 21.6801 27.04C24.7201 27.04 27.0401 23.84 27.0401 19.24C27.0401 15.16 24.1201 12.32 19.9201 12.32C15.0801 12.32 12.2401 15.96 12.2401 19.72C12.2401 21.2 12.8001 22.76 13.5201 23.6C13.6401 23.76 13.6801 23.92 13.6401 24.08C13.5201 24.6 13.2401 25.76 13.1601 26C13.0801 26.32 12.9201 26.36 12.6001 26.24C10.4801 25.2 9.12006 22.08 9.12006 19.6C9.12006 14.24 13.0001 9.31997 20.3601 9.31997C26.2401 9.31997 30.8401 13.52 30.8401 19.16C30.8401 25.04 27.1601 29.72 22.0001 29.72C20.6401 29.72 19.3601 29.16 18.6001 28.4C18.3601 28.16 17.9601 28.28 17.8801 28.6C17.6001 29.6 17.2001 31.28 17.0401 31.8C16.8001 32.76 16.2801 33.88 15.7201 34.88C15.5601 35.12 15.7201 35.48 16.0001 35.52C17.3201 35.84 18.6801 36.04 20.0801 36C28.5601 35.92 35.7601 28.88 36.0001 20.48Z" fill="white"/>
</svg>
